<svg xmlns="http://www.w3.org/2000/svg" viewBox="0 0 512 512" width="512" height="512">
  <defs>
    <linearGradient id="bg" x1="0" y1="0" x2="1" y2="1">
      <stop offset="0" stop-color="#1a8b85"/>
      <stop offset="1" stop-color="#083f3f"/>
    </linearGradient>
    <linearGradient id="paper" x1="0" y1="0" x2="0" y2="1">
      <stop offset="0" stop-color="#ffffff"/>
      <stop offset="1" stop-color="#f2f6f4"/>
    </linearGradient>
  </defs>
  <rect width="512" height="512" fill="url(#bg)"/>
  <circle cx="128" cy="104" r="196" fill="#7fdedb" opacity="0.14"/>
  <g transform="translate(256 274)">
    <g transform="rotate(-15)" opacity="0.55">
      <rect x="-132" y="-80" width="264" height="160" rx="17" fill="#bfdedb"/>
    </g>
    <g transform="rotate(-7.5)" opacity="0.85">
      <rect x="-132" y="-80" width="264" height="160" rx="17" fill="#dcecea"/>
    </g>
    <g>
      <rect x="-132" y="-80" width="264" height="160" rx="17" fill="url(#paper)"/>
      <rect x="-132" y="-80" width="264" height="17" rx="8.5" fill="#12736f"/>
      <rect x="-132" y="-72" width="264" height="9" fill="#12736f"/>
      <rect x="-104" y="-40" width="92" height="12" rx="6" fill="#93b2af"/>
      <rect x="-104" y="-8" width="156" height="22" rx="11" fill="#0f4f4d"/>
      <rect x="-104" y="30" width="128" height="11" rx="5.5" fill="#bed3d0"/>
      <rect x="-104" y="55" width="86" height="11" rx="5.5" fill="#bed3d0"/>
    </g>
  </g>
  <g transform="translate(388 400)">
    <circle r="52" fill="#0a4a49" opacity="0.35"/>
    <circle cx="-6" cy="-6" r="27" fill="none" stroke="#eafffb" stroke-width="13"/>
    <rect x="10" y="10" width="13" height="40" rx="6.5" fill="#eafffb" transform="rotate(-45 16.5 30)"/>
  </g>
</svg>
